# xmcd
#
# Track frame offsets: 
#        150
#        12147
#        22097
#        31597
#        45890
#        55180
#        70370
#        83552
#        95612
#
# Disc length: 1444 seconds
#
# Revision: 3
# Processed by: cddbd v1.5.2PL0 Copyright (c) Steve Scherf et al.
# Submitted via: ExactAudioCopy v0.95b4
#
DISCID=6005a209
DTITLE=Nancy Wilson - Greatest Hits
DYEAR=1971
DGENRE=Vocal Jazz
TTITLE0=How Glad I Am
TTITLE1=Don't Come Running Back To Me
TTITLE2=I Want To Be With You
TTITLE3=Face It Girl, It's Over
TTITLE4=Uptight
TTITLE5=Can't Take My Yes Of You
TTITLE6=Tell Me The Truth
TTITLE7=Peace Of Mind
TTITLE8=Now I'm A Woman
EXTD=
EXTT0=
EXTT1=
EXTT2=
EXTT3=
EXTT4=
EXTT5=
EXTT6=
EXTT7=
EXTT8=
PLAYORDER=
